<?xml version="1.0" standalone="no"?>
<!DOCTYPE svg PUBLIC "-//W3C//DTD SVG 20010904//EN"
 "http://www.w3.org/TR/2001/REC-SVG-20010904/DTD/svg10.dtd">
<svg version="1.0" xmlns="http://www.w3.org/2000/svg"
 width="1024.000000pt" height="1024.000000pt" viewBox="0 0 1024.000000 1024.000000"
 preserveAspectRatio="xMidYMid meet">
<metadata>
Created by potrace 1.14, written by Peter Selinger 2001-2017
</metadata>
<g transform="translate(0.000000,1024.000000) scale(0.100000,-0.100000)"
fill="#000000" stroke="none">
<path d="M5020 10188 c-52 -27 -160 -84 -240 -125 -152 -79 -314 -164 -465
-243 -49 -26 -162 -85 -250 -130 -159 -82 -318 -164 -510 -265 -55 -29 -163
-85 -240 -125 -203 -105 -397 -206 -500 -260 -49 -26 -162 -85 -250 -130 -88
-45 -196 -102 -240 -125 -44 -23 -174 -91 -290 -150 -115 -59 -214 -111 -220
-115 -5 -4 -69 -38 -141 -75 l-132 -67 3 -1587 c2 -872 6 -1602 8 -1621 3 -19
8 -75 11 -125 14 -181 51 -473 76 -595 5 -25 12 -61 15 -80 10 -70 28 -152 86
-399 50 -210 158 -554 245 -779 242 -625 555 -1177 948 -1667 213 -266 589
-643 787 -790 14 -11 63 -48 108 -82 243 -187 578 -381 873 -507 112 -48 363
-135 408 -142 50 -8 399 121 625 231 484 237 930 576 1339 1019 52 55 107 117
122 136 16 19 37 44 48 55 10 11 48 58 84 105 37 47 70 90 75 95 99 121 336
481 442 670 75 135 235 448 235 460 0 2 16 36 35 76 19 39 37 80 41 92 4 12
17 45 29 72 22 49 57 137 70 175 1 3 6 16 12 30 55 131 169 493 224 714 51
202 45 171 94 421 16 83 51 302 60 385 4 30 9 66 11 80 2 14 6 59 10 100 3 41
8 86 10 100 15 91 19 462 19 1823 l0 1538 -170 88 c-93 48 -237 123 -320 166
-141 73 -190 98 -455 238 -58 30 -172 89 -255 132 -146 75 -285 148 -510 265
-60 32 -168 88 -240 125 -71 37 -170 89 -220 115 -49 26 -171 89 -270 140 -99
51 -211 110 -250 130 -38 21 -146 77 -240 125 -164 84 -209 108 -506 264 -75
39 -138 71 -140 71 -2 -1 -47 -24 -99 -52z m1957 -3048 c16 -16 42 -46 58 -67
17 -20 48 -58 70 -84 112 -130 141 -164 241 -284 60 -71 119 -141 131 -155 29
-31 29 -39 0 -70 -12 -14 -49 -56 -82 -95 -32 -38 -61 -72 -64 -75 -3 -3 -28
-32 -56 -65 -27 -33 -62 -73 -76 -90 -14 -16 -95 -111 -180 -210 -84 -99 -222
-261 -307 -360 -85 -99 -170 -199 -190 -223 -21 -24 -43 -50 -50 -58 -8 -8
-39 -45 -70 -82 -32 -37 -69 -81 -83 -97 -22 -25 -446 -520 -529 -619 -14 -16
-43 -50 -65 -76 -22 -25 -111 -130 -198 -233 -88 -102 -166 -195 -175 -205
-10 -11 -37 -43 -62 -72 -25 -29 -78 -91 -119 -139 -40 -47 -95 -111 -122
-142 -26 -31 -76 -89 -110 -130 -68 -81 -220 -259 -255 -299 -13 -14 -95 -110
-185 -215 -89 -104 -165 -191 -170 -193 -8 -4 -37 22 -60 55 -8 11 -39 49 -70
84 -48 54 -252 293 -418 488 -25 30 -60 71 -77 90 -36 43 -59 69 -154 181 -40
47 -82 96 -94 110 -172 201 -217 253 -251 294 -22 27 -44 54 -50 60 -35 39
-94 106 -115 132 -276 324 -300 355 -293 367 7 12 71 89 108 131 6 6 35 40 65
76 30 36 57 67 60 70 3 3 30 34 60 70 98 116 105 123 120 140 8 9 31 36 51 60
20 25 48 57 61 73 l24 27 41 -47 c240 -283 303 -356 348 -408 29 -33 112 -130
185 -215 72 -85 144 -168 159 -185 14 -16 87 -101 161 -187 l134 -158 26 28
c14 15 50 56 80 92 30 36 60 70 65 76 24 26 63 73 105 124 25 30 50 60 56 65
6 6 33 37 60 70 27 33 51 62 54 65 8 8 111 128 176 205 32 39 70 84 85 100 15
17 126 147 248 290 122 143 243 285 270 315 26 30 82 96 123 145 42 50 86 102
99 116 13 14 41 46 62 72 21 26 43 52 50 59 7 7 75 87 152 178 77 91 142 167
145 170 3 3 30 34 60 70 73 86 69 81 290 340 106 124 213 249 239 279 96 114
173 201 177 201 2 0 16 -13 31 -30z"/>
</g>
</svg>
